<?xml version="1.0" encoding="UTF-8" standalone="no"?>
<!DOCTYPE svg PUBLIC "-//W3C//DTD SVG 1.1//EN" "http://www.w3.org/Graphics/SVG/1.1/DTD/svg11.dtd">
<svg width="100%" height="100%" viewBox="0 0 2209 2500" version="1.1" xmlns="http://www.w3.org/2000/svg" xmlns:xlink="http://www.w3.org/1999/xlink" xml:space="preserve" xmlns:serif="http://www.serif.com/" style="fill-rule:evenodd;clip-rule:evenodd;stroke-linejoin:round;stroke-miterlimit:2;">
    <g transform="matrix(5.55749,0,0,5.55749,-427.481,138.504)">
        <g>
            <path d="M327.156,161.144L224.047,161.144C198.016,161.144 182.352,172.833 174.59,182.646C189.711,187.976 275.602,223.376 275.602,223.376C275.602,223.376 361.492,187.976 376.613,182.646C368.848,172.833 353.184,161.144 327.156,161.144ZM379.535,291.044C384.41,304.134 396.82,312.228 410.02,312.228C413.789,312.228 417.621,311.564 421.355,310.173L428.848,307.369C445.688,301.103 454.23,282.384 447.973,265.537C447.043,263.033 445.809,260.744 444.355,258.654C442.992,256.701 414.797,222.525 414.797,222.525L414.797,244.619L398.66,249.22C381.816,255.482 373.266,274.205 379.535,291.044ZM152.543,249.22L136.406,244.619L136.406,222.525C136.406,222.525 108.211,256.701 106.848,258.654C105.395,260.744 104.16,263.033 103.23,265.537C96.968,282.384 105.516,301.103 122.355,307.369L129.843,310.173C133.582,311.564 137.414,312.228 141.18,312.228C154.383,312.228 166.793,304.134 171.668,291.044C177.938,274.205 169.383,255.482 152.543,249.22ZM275.602,237.38L149.594,187.206L149.594,234.056C152.379,234.845 156.906,235.908 156.906,235.908L157.422,236.095C169.066,240.427 178.328,249.033 183.496,260.326C186.32,266.494 187.738,273.068 187.738,279.658C187.738,285.142 186.758,290.634 184.789,295.931C178.938,311.638 165.797,322.861 149.594,325.58L149.594,349.298L275.602,399.357L401.609,349.298L401.609,325.58C385.402,322.861 372.262,311.638 366.414,295.931C364.445,290.634 363.465,285.142 363.465,279.658C363.465,273.068 364.883,266.494 367.707,260.326C372.875,249.033 382.137,240.427 393.781,236.095L394.293,235.908C394.293,235.908 398.824,234.845 401.609,234.056L401.609,187.206L275.602,237.38ZM345.738,70.789C345.738,109.521 314.332,140.927 275.605,140.927C236.863,140.927 205.465,109.521 205.465,70.789C205.465,32.039 236.863,0.642 275.605,0.642C314.332,0.642 345.738,32.039 345.738,70.789Z" style="fill:white;fill-rule:nonzero;"/>
        </g>
    </g>
</svg>
